<?xml version="1.0" standalone="no"?>
<!DOCTYPE svg PUBLIC "-//W3C//DTD SVG 20010904//EN"
 "http://www.w3.org/TR/2001/REC-SVG-20010904/DTD/svg10.dtd">
<svg version="1.0" xmlns="http://www.w3.org/2000/svg"
 width="2048.000000pt" height="2048.000000pt" viewBox="0 0 2048.000000 2048.000000"
 preserveAspectRatio="xMidYMid meet">

<g transform="translate(0.000000,2048.000000) scale(0.100000,-0.100000)"
fill="#000000" stroke="none">
<path d="M9336 13629 c-158 -26 -300 -157 -341 -314 -55 -214 36 -415 232
-512 l73 -36 0 -316 0 -316 278 -278 c251 -252 275 -278 253 -284 -142 -37
-330 -125 -428 -200 l-47 -36 -473 479 -474 479 18 55 c26 80 23 226 -6 302
-67 174 -222 278 -412 278 -204 0 -368 -122 -424 -315 -13 -44 -16 -82 -13
-151 7 -119 42 -200 125 -283 70 -69 146 -107 247 -123 85 -13 178 -1 253 32
l42 19 466 -471 465 -470 -32 -39 c-67 -81 -128 -176 -175 -271 -26 -54 -50
-98 -53 -98 -3 0 -72 72 -155 159 l-150 160 -611 0 -612 1 -28 58 c-59 121
-198 222 -338 243 -185 29 -370 -69 -454 -240 -36 -75 -37 -78 -37 -196 0
-114 2 -123 32 -187 91 -193 319 -292 526 -228 128 40 227 127 278 244 l24 56
556 0 556 0 94 -102 c52 -57 126 -139 165 -183 l71 -80 -14 -94 c-7 -52 -12
-100 -9 -107 3 -9 38 -12 127 -11 l123 2 12 95 c43 329 203 606 463 799 178
132 376 205 614 226 l77 7 0 124 0 124 -27 -6 c-25 -7 -49 15 -335 307 l-308
314 0 265 0 265 57 24 c70 31 160 113 197 181 146 269 -9 594 -308 649 -67 12
-89 12 -160 0z m180 -256 c57 -29 96 -90 102 -157 6 -71 -10 -114 -57 -160
-78 -76 -201 -78 -278 -5 -45 43 -63 85 -63 146 1 88 57 168 137 193 42 14
116 6 159 -17z m-1429 -694 c139 -52 164 -260 43 -348 -79 -57 -176 -51 -250
15 -103 93 -85 253 35 321 44 25 124 31 172 12z m-1052 -1548 c70 -31 125
-113 125 -186 0 -107 -95 -198 -205 -198 -115 0 -195 81 -195 198 0 149 143
246 275 186z"/>
<path d="M9524 10802 c-52 -7 -76 -91 -38 -133 16 -18 33 -19 289 -19 271 0
272 0 293 23 29 31 29 77 -1 105 -22 20 -33 21 -272 24 -138 2 -260 2 -271 0z"/>
<path d="M9293 10513 c-51 -10 -69 -80 -32 -127 l20 -26 339 0 339 0 20 26
c28 35 26 67 -3 101 l-24 28 -319 2 c-175 0 -328 -1 -340 -4z"/>
<path d="M11358 10305 c19 -438 -243 -890 -628 -1085 -142 -71 -344 -120 -502
-120 l-68 0 0 -124 c0 -111 2 -125 18 -128 20 -3 698 -693 696 -708 -1 -6 -2
-106 -3 -222 l-1 -213 -56 -24 c-163 -71 -263 -246 -251 -440 4 -72 11 -95 46
-166 48 -97 101 -147 206 -196 135 -64 312 -48 435 38 195 137 249 403 120
601 -48 74 -118 138 -186 169 l-54 24 0 269 0 268 -306 313 -305 312 123 42
c68 23 156 58 197 79 l74 38 431 -431 431 -431 136 0 136 0 13 -46 c7 -25 30
-71 50 -103 149 -230 490 -262 688 -65 95 96 146 249 123 376 -57 325 -430
477 -703 286 -53 -38 -119 -112 -147 -165 -11 -21 -18 -23 -109 -23 l-97 0
-275 278 c-151 152 -317 320 -369 374 l-94 96 76 84 c180 196 291 390 355 619
l28 99 144 -145 144 -145 603 0 603 0 27 -56 c82 -174 280 -277 471 -246 97
16 199 70 260 137 206 226 141 561 -135 693 -76 36 -81 37 -193 37 -109 0
-119 -2 -183 -32 -86 -41 -168 -119 -207 -196 -16 -33 -30 -66 -30 -74 0 -11
-98 -13 -562 -12 l-563 1 -65 72 c-36 40 -116 126 -177 193 -100 108 -113 125
-113 157 l0 36 -128 0 -128 0 4 -95z m2269 -318 c126 -87 115 -280 -20 -343
-84 -39 -166 -27 -230 34 -43 40 -60 81 -61 143 -1 75 40 144 104 177 63 32
151 28 207 -11z m-1041 -1552 c119 -70 130 -247 22 -328 -84 -62 -180 -60
-255 6 -93 82 -96 208 -7 294 24 23 58 47 76 52 48 15 115 5 164 -24z m-1498
-974 c137 -70 152 -246 30 -344 -66 -53 -179 -48 -250 11 -82 69 -90 209 -15
291 54 58 164 78 235 42z"/>
<path d="M10474 10215 c-51 -21 -60 -80 -19 -120 l24 -25 350 0 350 0 20 26
c27 34 27 67 -1 98 l-23 24 -335 5 c-260 4 -343 2 -366 -8z"/>
<path d="M9213 10205 c-44 -31 -37 -111 13 -134 17 -7 123 -11 324 -11 l299 0
27 24 c37 31 39 90 5 117 -22 18 -45 19 -335 19 -259 0 -315 -3 -333 -15z"/>
<path d="M9549 9911 c-34 -27 -32 -86 5 -117 24 -21 37 -24 112 -24 71 0 87 3
104 20 29 29 27 84 -5 115 -22 23 -32 25 -108 25 -68 0 -89 -4 -108 -19z"/>
<path d="M10356 9911 c-10 -11 -18 -36 -18 -56 0 -20 8 -45 18 -56 16 -18 33
-19 350 -19 333 0 333 0 348 22 23 33 20 81 -7 106 -23 22 -28 22 -349 22
-309 0 -326 -1 -342 -19z"/>
<path d="M10266 9618 c-23 -33 -20 -81 7 -105 21 -20 34 -21 262 -23 293 -3
271 -4 295 20 26 26 26 70 -1 104 l-20 26 -264 0 c-261 0 -264 0 -279 -22z"/>
<path d="M9643 8662 l-203 -217 -2 -345 c0 -190 -1 -353 0 -362 1 -12 -19 -27
-63 -48 -334 -160 -339 -646 -8 -802 225 -106 479 -16 590 210 32 64 37 85 41
162 6 114 -20 203 -81 287 -52 70 -106 114 -179 148 l-53 24 -4 305 -3 304 73
78 c40 44 131 138 203 211 l130 132 -14 43 c-7 24 -16 46 -19 50 -7 9 -157 38
-186 37 -13 0 -95 -81 -222 -217z m25 -1200 c18 -13 44 -40 60 -59 24 -32 27
-45 27 -113 0 -68 -3 -81 -29 -118 -36 -52 -95 -82 -165 -82 -215 0 -278 279
-86 384 45 24 151 18 193 -12z"/>
</g>
</svg>
